<svg viewBox="0 0 50 50" xmlns="http://www.w3.org/2000/svg" xmlns:xlink="http://www.w3.org/1999/xlink" width="50.000000" height="50.000000" fill="none" customFrame="#000000">
	<path id="形状结合" d="M20 45C20 47.7614 22.2386 50 25 50C27.7614 50 30 47.7614 30 45L30 35C30 32.2386 32.2386 30 35 30L45 30C47.7614 30 50 27.7614 50 25C50 22.2386 47.7614 20 45 20L35 20C32.2386 20 30 17.7614 30 15L30 5C30 2.23858 27.7614 0 25 0C22.2386 0 20 2.23858 20 5L20 15C20 17.7614 17.7614 20 15 20L5 20C2.23858 20 0 22.2386 0 25C0 27.7614 2.23858 30 5 30L15 30C17.7614 30 20 32.2386 20 35L20 45Z" fill="rgb(73,255,216)" fill-rule="evenodd" />
</svg>
